<svg width="28" height="28" viewBox="0 0 28 28" fill="none" xmlns="http://www.w3.org/2000/svg">
<path d="M27.3329 27.105L19.4778 18.9359C21.4813 16.9266 22.7226 14.1565 22.7226 11.1015C22.7226 4.9798 17.7428 0 11.6211 0C5.49945 0 0.519653 4.9798 0.519653 11.1015C0.519653 17.2231 5.49945 22.2029 11.6211 22.2029C14.3082 22.2029 16.7743 21.2424 18.6964 19.6485L26.5706 27.8377C26.6742 27.9461 26.8127 28 26.9517 28C27.0839 28 27.2155 27.9508 27.3181 27.8525C27.5285 27.65 27.5348 27.3154 27.3329 27.105ZM11.6211 21.1456C6.08254 21.1456 1.57694 16.64 1.57694 11.1015C1.57694 5.56289 6.08254 1.05728 11.6211 1.05728C17.1597 1.05728 21.6653 5.56289 21.6653 11.1015C21.6653 16.64 17.1592 21.1456 11.6211 21.1456Z" fill="white"/>
</svg>
